<?xml version="1.0" encoding="utf-8"?>
<!-- Generator: Adobe Illustrator 19.0.0, SVG Export Plug-In . SVG Version: 6.00 Build 0)  -->
<svg version="1.1" id="layer" xmlns="http://www.w3.org/2000/svg" xmlns:xlink="http://www.w3.org/1999/xlink" x="0px" y="0px"
	 viewBox="-153 -46 652 652" style="enable-background:new -153 -46 652 652;" xml:space="preserve">
<style type="text/css">
	.st0{fill-rule:evenodd;clip-rule:evenodd;fill:#00518E;}
	.st1{fill:#00518E;}
</style>
<g>
	<path class="st0" d="M495.6,98c0-40.1-31.7-72.7-70.8-72.7H-86.9c-39.1,0-70.8,32.6-70.8,72.7v233.4c0,40.1,31.7,72.7,70.8,72.7
		h511.6c39.1,0,70.8-32.6,70.8-72.7V98z M-39,264.3c0,1.3,0,16.4,0,18c0.3,12.2,4.7,15.6,26.5,15l157.8-0.1l-0.1,39.5l-189.8-0.1
		c-23.1,0.7-40.7-12-41.2-38.2v-42.8c0-16.3,3.4-31.6,16.6-40.6c10.2-5.5,12.3-5.5,19.8-7.5l130.9-28.5
		c16.6-3.5,19.4-12.6,18.7-25.1c0-12.6-5.5-22.4-19.4-22.4l-104.4-0.1c-18.6-0.1-17,9.1-17,16.8h-44.6v-25.3
		c0.6-19.3,14.9-29.9,39.1-30.7l151.4-0.3c24.4,0.4,40.4,18.6,40.4,40.5l0.1,38.1c-0.8,22.4-7.1,35.8-27.5,44.6l-150.8,35.1
		C-39,252.1-39,255.3-39,264.3 M324,214.9l-15.2-80.5c-5.7-25.5-18.4-42.1-44.6-42.5h-45.6c-22.8,0-39.4,16.9-39,42.5v202.3H219
		l-0.3-183.9c-0.3-9.6,5.2-14.7,18.6-15.3l9.2,0.1c12.7,1,16.6,7.9,18.1,15.9l13.2,70l10.3,58.1l2.7,15c5.7,28,21.8,39.9,52.1,39.9
		h38.4c21.8-1.4,41.2-16.1,41.5-42.6v-202h-39.4l-0.3,184.8c-2,10.8-8.8,14.9-18,14.2h-6.2c-20.7,2.3-22.9-14.2-22.9-14.2
		C337.2,286.6,324,214.9,324,214.9"/>
	<path class="st1" d="M-63.3,461.4h8.8l16.7,49h-7.5l-5-14h-17.6l-4.8,14h-7.4L-63.3,461.4z M-66.2,490.7h14l-6.8-22.8h-0.1
		L-66.2,490.7z M-66.2,490.7"/>
	<path class="st1" d="M-32.2,476.5h6.4v7.2h0.1c0.3-0.7,0.7-1.6,1.1-2.4c0.6-1,1.1-1.8,2-2.7c0.8-0.8,1.8-1.6,3.1-2.1
		s2.7-0.8,4.4-0.8c2,0,3.5,0.4,4.7,1.1c1.1,0.7,2.1,1.7,2.8,2.8c0.7,1.1,1.1,2.4,1.3,3.7c0.3,1.3,0.3,2.4,0.3,3.5v23.4h-6.4v-18.4
		c0-1.6,0-3-0.1-4.1c0-1.3-0.1-2.3-0.6-3.1c-0.3-0.8-0.7-1.4-1.4-1.8c-0.6-0.4-1.6-0.7-2.7-0.7c-1.3,0-2.5,0.4-3.7,1.3
		c-1.1,0.8-2,1.8-2.8,3.3c-0.7,1.3-1.4,2.8-1.8,4.4c-0.4,1.7-0.7,3.3-0.7,5v14.3h-6.4v-33.7H-32.2z M-32.2,476.5"/>
	<path class="st1" d="M37.8,461.4h8.8l16.7,49h-7.5l-4.8-14H33.4l-4.8,14h-7.5L37.8,461.4z M35,490.7h14l-6.8-22.8H42L35,490.7z
		 M35,490.7"/>
	<path class="st1" d="M80.3,486.9l6.9-10.3h7.4l-10.6,16l12,17.8h-7.4L80.4,498l-8.5,12.3h-7.4l12.2-17.8l-10.8-16h7.4L80.3,486.9z
		 M80.3,486.9"/>
	<path class="st1" d="M102,461.4h7.6v7.2H102V461.4z M102.7,476.5h6.4v33.7h-6.4V476.5z M102.7,476.5"/>
	<path class="st1" d="M131.7,490.8c0.8,0.6,1.8,1.1,2.7,1.7c1,0.6,1.7,1.3,2.6,2c0.7,0.9,1.4,1.7,1.8,2.7c0.4,1,0.7,2.3,0.7,3.7
		c0,3.5-1.1,6.1-3.5,7.8c-2.3,1.7-5.4,2.4-9.2,2.4c-2.3,0-4.2-0.1-5.7-0.6c-1.6-0.3-2.6-0.6-3.4-0.8V504c0.1,0.1,0.6,0.3,1.1,0.4
		c0.6,0.3,1.3,0.4,2.1,0.7c0.9,0.1,1.7,0.4,2.6,0.6c1,0.1,1.8,0.3,2.7,0.3c0.7,0,1.6,0,2.4-0.1c0.8-0.1,1.6-0.3,2.3-0.7
		c0.7-0.3,1.3-0.8,1.7-1.4c0.4-0.6,0.7-1.3,0.7-2.1c0-0.6-0.1-1.1-0.6-1.7c-0.3-0.6-0.8-1-1.3-1.4c-0.6-0.4-1.1-0.8-1.7-1.3
		c-0.7-0.4-1.3-0.7-1.8-1.1l-3.3-2c-0.7-0.4-1.6-1-2.4-1.6c-0.8-0.6-1.6-1.1-2.1-1.8c-0.6-0.7-1.1-1.6-1.6-2.6c-0.4-1-0.6-2-0.6-3.3
		c0-1.6,0.3-2.8,0.8-4.1c0.6-1.1,1.4-2.1,2.6-3c1.1-0.8,2.3-1.4,3.8-1.8c1.4-0.4,3.1-0.6,4.8-0.6c1.7,0,3.3,0.1,4.5,0.6
		c1.3,0.3,2.4,0.6,3.1,0.7v5.8c-0.3-0.1-0.6-0.3-1.1-0.6c-0.4-0.3-1.1-0.4-1.7-0.7c-0.7-0.3-1.4-0.4-2.3-0.6
		c-0.8-0.1-1.7-0.3-2.7-0.3c-0.7,0-1.4,0.1-2.1,0.3c-0.7,0.1-1.3,0.4-1.8,0.7c-0.6,0.3-1,0.7-1.3,1.1c-0.3,0.4-0.4,1-0.4,1.4
		c0,0.6,0.1,1.1,0.4,1.6c0.3,0.4,0.7,0.8,1.1,1.3c0.4,0.4,1,0.7,1.6,1.1c0.6,0.3,1.1,0.7,1.7,1L131.7,490.8z M131.7,490.8"/>
	<path class="st1" d="M191,509.8c-1.3,0.4-2.5,0.7-4.1,0.8c-1.6,0.3-3.3,0.4-5.2,0.4c-3.3,0-5.9-0.6-8.1-1.8
		c-2.1-1.1-3.8-2.7-5.1-4.5c-1.3-1.8-2.1-3.8-2.7-6.1c-0.6-2.3-0.8-4.4-0.8-6.5c0-2.4,0.3-4.5,0.8-6.5c0.6-2,1.4-3.7,2.5-5.2
		c1.1-1.4,2.7-2.5,4.5-3.4c1.8-0.9,4-1.3,6.5-1.3c2.4,0,4.4,0.3,5.9,1.1c1.6,0.7,2.8,1.7,3.7,2.8c1,1.1,1.6,2.4,2,3.8
		c0.4,1.4,0.6,2.8,0.6,4.1h-7.4c0-0.6,0-1.3-0.1-2.1c-0.1-0.9-0.3-1.6-0.7-2.3c-0.3-0.7-0.9-1.3-1.6-1.7c-0.7-0.4-1.6-0.7-2.8-0.7
		c-2.1,0-3.8,1-5.1,2.8c-1.3,1.8-1.8,4.4-1.8,7.5c0,1.7,0.1,3.4,0.6,5.2c0.4,1.8,1.1,3.4,2.1,5c1,1.4,2.4,2.7,4.1,3.7
		c1.7,1,4,1.4,6.5,1.4c0.9,0,1.8,0,2.7-0.1c0.8-0.1,1.8-0.3,2.7-0.6v4.1H191z M191,509.8"/>
	<path class="st1" d="M210.3,511.1c-2.6,0-4.8-0.4-6.7-1.3c-1.8-0.8-3.4-2-4.7-3.5c-1.3-1.6-2.1-3.4-2.8-5.5
		c-0.6-2.1-0.9-4.5-0.9-7.2c0-5.4,1.3-9.6,3.7-12.9c2.4-3.3,6.2-4.8,11.3-4.8c5.1,0,8.8,1.6,11.2,4.8c2.4,3.3,3.7,7.5,3.7,12.9
		c0,2.7-0.3,5.1-0.9,7.2c-0.6,2.1-1.6,4-2.7,5.5c-1.3,1.6-2.8,2.7-4.7,3.5C215.1,510.6,212.9,511.1,210.3,511.1 M202.5,493.5
		c0,1.4,0.1,2.8,0.3,4.2c0.1,1.6,0.6,2.8,1.1,4.1c0.6,1.3,1.3,2.3,2.4,3.1c1,0.8,2.4,1.3,4.2,1.3c1.7,0,3.1-0.4,4.1-1.3
		c1-0.8,1.8-1.8,2.4-3.1c0.6-1.3,0.8-2.6,1-4.1c0.1-1.6,0.3-3,0.3-4.2s-0.1-2.8-0.3-4.2c-0.1-1.4-0.6-2.8-1-4.1
		c-0.6-1.3-1.3-2.3-2.4-3.1c-1-0.8-2.4-1.3-4.1-1.3c-1.7,0-3.1,0.4-4.2,1.3c-1,0.8-1.8,1.8-2.4,3.1c-0.6,1.3-0.9,2.7-1.1,4.1
		C202.5,490.7,202.5,492.1,202.5,493.5"/>
	<path class="st1" d="M233.4,476.5h6.4v6.8h0.1c0.3-0.7,0.6-1.4,1-2.3c0.4-0.8,1-1.7,1.8-2.5c0.7-0.8,1.7-1.4,2.7-2
		c1.1-0.6,2.4-0.8,3.8-0.8c1.4,0,2.7,0.3,3.8,0.7c1,0.4,1.8,1,2.6,1.7c0.7,0.7,1.1,1.4,1.6,2.4c0.3,0.8,0.6,1.7,0.7,2.4h0.1
		c0.3-0.7,0.7-1.4,1.1-2.3c0.6-0.8,1.1-1.6,2-2.4c0.7-0.7,1.7-1.3,2.8-1.8c1.1-0.4,2.3-0.7,3.7-0.7c2,0,3.5,0.4,4.8,1.1
		c1.3,0.7,2.1,1.7,2.8,2.8c0.7,1.1,1.1,2.4,1.3,3.7c0.1,1.3,0.3,2.4,0.3,3.5v23.4h-6.4v-18.4c0-1.6,0-3-0.1-4.2
		c0-1.3-0.3-2.3-0.6-3.1c-0.3-0.8-0.7-1.4-1.4-1.8c-0.7-0.4-1.6-0.7-2.7-0.7c-1,0-2,0.4-2.8,1.1s-1.7,1.7-2.4,2.8
		c-0.7,1.1-1.3,2.4-1.7,3.8c-0.4,1.4-0.6,2.8-0.6,4.2v16.1h-6.4v-18.4c0-1.6,0-3-0.1-4.1c0-1.3-0.1-2.3-0.4-3.1
		c-0.3-0.8-0.7-1.4-1.3-1.8c-0.6-0.4-1.4-0.7-2.6-0.7s-2.1,0.4-3.1,1.3c-0.9,0.9-1.7,1.8-2.4,3.3c-0.7,1.3-1.3,2.8-1.6,4.4
		c-0.4,1.7-0.6,3.3-0.6,5v14.3h-6.4V476.5z M233.4,476.5"/>
	<path class="st1" d="M287.1,476.5h6.4v5.1h0.1c0.1-0.4,0.6-1,1-1.7c0.4-0.7,1.1-1.3,1.8-2c0.8-0.6,1.7-1.1,2.8-1.6
		c1.1-0.4,2.3-0.6,3.7-0.6c2,0,3.8,0.4,5.2,1.3c1.4,0.8,2.7,2.1,3.5,3.7c1,1.6,1.6,3.4,2.1,5.4c0.4,2.1,0.7,4.4,0.7,6.8
		c0,5.7-1,10.2-3.1,13.3c-2.1,3.3-5,4.8-8.8,4.8c-1.4,0-2.7-0.1-3.7-0.6c-1-0.4-1.8-0.8-2.7-1.4c-0.7-0.6-1.3-1.1-1.8-1.8
		c-0.6-0.7-0.7-1.1-1-1.7h-0.1v19.8h-6.4v-48.9H287.1z M293.6,493.5c0,1.6,0.1,3,0.3,4.5c0.3,1.6,0.7,2.8,1.3,4.1
		c0.6,1.3,1.3,2.1,2.3,3c1,0.7,2.1,1.1,3.5,1.1c1.3,0,2.3-0.3,3.1-1c0.8-0.7,1.6-1.6,2.1-2.7c0.6-1.1,0.8-2.4,1.1-4
		c0.3-1.6,0.3-3.3,0.3-5c0-1.3,0-2.7-0.3-4.1c-0.1-1.6-0.4-2.8-0.9-4.1c-0.4-1.3-1.1-2.3-2-3.1c-0.9-0.8-2.1-1.3-3.7-1.3
		c-1.3,0-2.4,0.4-3.3,1.3c-1,0.8-1.7,1.8-2.3,3.1c-0.6,1.3-1,2.7-1.3,4.1C293.6,490.7,293.6,492.1,293.6,493.5"/>
	<path class="st1" d="M338.9,506.1c-0.4,0.4-0.7,1-1.1,1.6c-0.4,0.6-1,1.1-1.7,1.6c-0.7,0.6-1.6,1-2.5,1.3c-1,0.3-2.1,0.6-3.4,0.6
		c-3.1,0-5.5-0.8-7.2-2.6c-1.6-1.7-2.4-3.8-2.4-6.5c0-2.3,0.6-4.1,1.7-5.5c1.1-1.4,2.5-2.5,4.4-3.4c1.7-0.8,3.8-1.4,5.9-1.7
		c2.3-0.3,4.4-0.4,6.5-0.4V485c-0.3-1.7-0.8-2.8-1.8-3.4c-1-0.6-2.1-1-3.3-1c-2,0-3.3,0.6-4.1,1.6c-0.8,1-1.3,2.3-1.3,3.7h-6.8
		c0-1.3,0.3-2.5,0.6-3.8c0.4-1.3,1.1-2.3,2.1-3.3c1-1,2.3-1.7,4-2.3c1.6-0.6,3.5-0.8,6-0.8c2.7,0,4.8,0.4,6.4,1.4
		c1.6,0.8,2.5,2,3.3,3.3c0.7,1.3,1.1,2.6,1.3,3.8c0.1,1.3,0.1,2.3,0.1,3.1v23.2h-6.4v-4.4H338.9z M337.6,495.2
		c-1.3,0-2.5,0.1-3.7,0.4c-1.3,0.3-2.3,0.7-3.3,1.3c-1,0.6-1.7,1.3-2.3,2.1c-0.6,0.8-0.8,1.8-0.8,2.8c0,1.3,0.4,2.4,1.1,3.1
		c0.7,0.7,1.6,1.1,2.5,1.1c1.1,0,2.1-0.3,3.1-0.8c1-0.6,1.7-1.3,2.4-2.1c0.7-0.9,1.3-1.8,1.6-3c0.4-1.1,0.6-2.1,0.6-3.1v-2h-1.3
		V495.2z M337.6,495.2"/>
	<path class="st1" d="M355.5,476.5h6.4v7.2h0.1c0.3-0.7,0.7-1.6,1.1-2.4c0.6-1,1.1-1.8,2-2.7c0.8-0.8,1.8-1.6,3.1-2.1
		c1.3-0.6,2.7-0.8,4.4-0.8c2,0,3.5,0.4,4.7,1.1c1.3,0.7,2.1,1.7,2.8,2.8c0.7,1.1,1.1,2.4,1.3,3.7c0.3,1.3,0.3,2.4,0.3,3.5v23.4h-6.4
		v-18.4c0-1.6,0-3,0-4.1c0-1.3-0.3-2.3-0.6-3.1c-0.3-0.8-0.7-1.4-1.4-1.8c-0.6-0.4-1.6-0.7-2.7-0.7c-1.3,0-2.6,0.4-3.7,1.3
		c-1.1,0.8-2,1.8-2.8,3.3c-0.8,1.3-1.4,2.8-1.8,4.4c-0.4,1.7-0.7,3.3-0.7,5v14.3h-6.4v-33.7H355.5z M355.5,476.5"/>
	<path class="st1" d="M418.4,476.5l-16.7,48.3h-6.4l4.8-14.3l-12.9-34h7.1l8.9,24.5h0.1l7.9-24.5H418.4z M418.4,476.5"/>
</g>
</svg>
