<svg width="151" height="132" viewBox="0 0 151 132" fill="none" xmlns="http://www.w3.org/2000/svg"><path d="M76.399 71.653 69.344 86.3a6.622 6.622 0 0 1-1.195 1.943c-.951 1.083-2.186 1.812-3.664 2.166a9.112 9.112 0 0 1-2.146.243c-1.822 0-3.917-.475-6.225-1.406-3.957-1.59-8.431-4.485-12.592-8.139-4.16-3.654-7.601-7.723-9.686-11.448-.84-1.488-1.448-2.905-1.822-4.23l-7.997 3.167c.89 2.966.415 5.78-1.326 7.774-.972 1.114-2.287 1.883-3.796 2.247a8.72 8.72 0 0 1-2.085.243c-.729 0-1.447-.08-2.196-.233-2.48-.516-5.071-1.862-7.288-3.805-2.217-1.944-3.907-4.323-4.747-6.711-1.114-3.159-.699-6.185 1.154-8.3 1.396-1.6 3.492-2.49 5.88-2.49.709 0 1.448.08 2.197.232 2.48.517 5.061 1.863 7.288 3.806l.101.091 17.957-7.116 9.12-7.247-27.644-22.714L36.184 2.297 69 21.164 60.73 31.6l1.62 1.144 9.544-11.084.233-.283c1.539-1.883 4.009-2.915 6.954-2.915.84 0 1.72.08 2.612.243 3.3.607 6.741 2.257 9.666 4.656 2.602 2.125 4.717 4.626 6.043 7.136l25.174-9.788a15.427 15.427 0 0 1-.587-1.447c-1.367-3.877-.911-7.4 1.295-9.92 1.66-1.903 4.039-2.905 6.893-2.905.891 0 1.822.101 2.764.293 3.168.658 6.508 2.41 9.393 4.93 2.51 2.196 4.484 4.808 5.668 7.46h.051l.425 1.184c1.367 3.877.911 7.4-1.296 9.92-1.143 1.316-2.631 2.196-4.413 2.621-.779.183-1.609.284-2.47.284-.86 0-1.822-.101-2.773-.294-3.178-.658-6.509-2.409-9.393-4.93l-.253-.222-29.395 11.438-.02.04.233.183-1.073 1.437-8.21 10.618 1.479 1.043 9.373-11.843 37.806 21.65-28.767 36.34-32.927-26.926.02-.01Zm31.631 14.991 17.38-21.955-8.219-4.706-16.408 20.73 7.247 5.931ZM40.344 63.8c.192.506.496 1.164.972 1.973 1.66 2.855 4.413 6.063 7.773 9.009 3.361 2.956 6.883 5.284 9.93 6.56.87.364 1.559.576 2.085.708a13.203 13.203 0 0 0-.971-1.974 26.858 26.858 0 0 0-1.134-1.772 6.28 6.28 0 0 1-.445.02c-2.561 0-5.972-1.65-9.12-4.423-2.592-2.277-5.345-5.739-5.588-8.745a24.58 24.58 0 0 0-1.417-.658 14.484 14.484 0 0 0-2.085-.709v.01Zm53.92 11.58 15.538-19.638-7.41-4.24-14.667 18.533 6.54 5.344Zm-83.416-9.364c.446.83 1.164 1.7 2.025 2.46.86.749 1.822 1.346 2.702 1.68-.445-.83-1.164-1.7-2.024-2.46-.86-.748-1.822-1.346-2.703-1.68Zm67.383-.151a9.24 9.24 0 0 1-.75 3.532l8.2-10.355-1.407-.992-6.043 7.815ZM46.954 57.29c2.804 1.326 5.81 3.25 8.725 5.557l5.942-7.187c-2.035-1.508-4.06-2.6-5.8-3.117-.699-.213-1.347-.314-1.863-.314-.567 0-.749.121-.749.132l-1.336 1.154-.06-.071-4.86 3.856v-.01Zm15.082-11.286c.749.375 1.498.8 2.247 1.275l5.283-6.447a8.581 8.581 0 0 0-.951-.223 6.631 6.631 0 0 0-1.194-.122c-.335 0-.567.04-.699.071l-4.696 5.446h.01Zm-11.378-1.7a10.098 10.098 0 0 1 2.106-.446l4.069-4.717-1.336-.941-4.839 6.103Zm-4.342-8.088 10.01-12.632-6.64-3.816-9.21 11.64 5.85 4.808h-.01Zm26.803-3.077c.79.283 1.57.617 2.338.992l5.871-6.863a10.73 10.73 0 0 0-1.154-.294 6.566 6.566 0 0 0-1.113-.11c-.284 0-.476.03-.587.05l-5.355 6.225Zm-39.162-7.076 8.34-10.537-4.038-2.317-7.895 9.909 3.583 2.946h.01Zm95.704-11.154c-.101.78.547 3.614 4.008 6.64 2.652 2.318 5.203 3.138 6.58 3.138.253 0 .435-.03.536-.05.101-.78-.546-3.614-4.008-6.64-2.652-2.319-5.203-3.139-6.579-3.139-.253 0-.426.03-.527.051h-.02.01Z" fill="#333"/><path d="m36.63 4.585 29.718 17.086L58.2 31.955l4.464 3.148 10.87-12.612c1.215-1.488 3.179-2.277 5.588-2.277.729 0 1.498.07 2.288.223 3.016.556 6.164 2.075 8.867 4.281 2.712 2.217 4.848 4.859 6.002 7.42.091.202.172.404.253.597l28.585-11.114a15.96 15.96 0 0 1-1.428-2.966c-1.143-3.25-.809-6.154.952-8.169 1.326-1.518 3.249-2.297 5.557-2.297.759 0 1.569.08 2.409.263 2.875.597 5.932 2.207 8.584 4.524 2.652 2.318 4.656 5.132 5.638 7.906 1.143 3.249.809 6.154-.952 8.168-.911 1.033-2.095 1.731-3.492 2.065a9.02 9.02 0 0 1-2.065.233 11.38 11.38 0 0 1-2.409-.263c-2.885-.597-5.932-2.207-8.584-4.525a18.046 18.046 0 0 1-1.012-.941L97.089 37.765a5.64 5.64 0 0 1-.84 1.903l.02.02-9.343 12.086 4.363 3.078 9.464-11.965 34.698 19.87-26.368 33.322-30.609-25.032 9.778-12.36-4.312-3.046-7.45 9.646a7.673 7.673 0 0 1-.85 3.968l-7.875 16.347a4.935 4.935 0 0 1-.9 1.488c-.588.668-1.468 1.306-2.744 1.61a7.415 7.415 0 0 1-1.73.192c-1.458 0-3.28-.354-5.568-1.275-3.775-1.519-8.067-4.302-12.086-7.825-4.008-3.532-7.318-7.43-9.312-10.982-1.336-2.379-1.903-4.282-2.024-5.81l-11.62 4.605c.162.355.313.709.435 1.063.9 2.54.597 4.93-.82 6.55-.739.84-1.73 1.416-2.875 1.69a7.402 7.402 0 0 1-1.67.192 8.95 8.95 0 0 1-1.832-.192c-2.186-.456-4.484-1.66-6.478-3.412-1.994-1.74-3.502-3.866-4.241-5.972-.901-2.54-.597-4.93.82-6.549 1.073-1.235 2.682-1.882 4.544-1.882.588 0 1.205.06 1.833.192 2.186.456 4.484 1.66 6.478 3.411.303.263.587.537.87.82l19.252-7.622 11.064-8.786.02.02c1.245-.971 2.773-1.477 4.504-1.528l5.82-6.762-4.291-3.036-7.825 9.869-26.236-21.56L36.69 4.595m-2.388 23.99 10.74-13.564-7.137-4.1-9.93 12.471 6.327 5.203m106.028-2.116c.891 0 1.559-.222 1.913-.627 1.114-1.265.02-5.476-4.211-9.181-2.894-2.53-5.83-3.573-7.753-3.573-.344 0-.668.03-.941.101-.426.101-.76.284-.972.527-1.114 1.265-.02 5.476 4.211 9.18 2.895 2.53 5.83 3.573 7.753 3.573ZM46.65 38.747l12.41-15.659-9.747-5.607-11.246 14.201 8.584 7.055m29.303-2.368 8.36-9.788c-1.254-.658-2.54-1.124-3.755-1.347a7.875 7.875 0 0 0-1.427-.141c-.992 0-1.589.242-1.781.465h.01l-7.339 8.533c1.974.385 3.998 1.164 5.932 2.267m-11.246 13.28 7.845-9.565c-1.184-.587-2.4-1.002-3.543-1.204a8.73 8.73 0 0 0-1.518-.152c-.89 0-1.519.182-1.822.435l-6.458 7.5c1.761.679 3.613 1.68 5.496 2.987Zm29.89 28.241 17.927-22.653-10.517-6.023-16.691 21.095 9.272 7.591M52.106 51.025l-.02-.02-8.543 6.792c.374.132.77.273 1.184.435 3.523 1.417 7.48 3.928 11.256 7.116l8.22-9.94c-2.673-2.237-5.436-3.846-7.815-4.555-.88-.263-1.68-.395-2.369-.395-.82 0-1.477.183-1.913.557m56.249 38.13 19.768-24.981-11.327-6.488-18.432 23.29 9.991 8.169M62.39 83.973c.486 0 .74-.081.82-.142.132-.203.263-1.64-1.488-4.666A27.262 27.262 0 0 0 59.8 76.3a2.89 2.89 0 0 1-1.194.233c-2.025 0-5.102-1.468-7.956-3.978-3.422-3.006-5.395-6.509-4.93-8.452-.88-.476-1.73-.9-2.56-1.245-1.964-.82-3.25-1.022-4.009-1.022-.263 0-.466.02-.597.06-.122.03-.192.061-.223.092-.121.192-.263 1.63 1.498 4.666 1.751 3.016 4.636 6.377 8.138 9.454 3.503 3.077 7.197 5.516 10.416 6.863 1.964.82 3.25 1.022 4.008 1.022M16.881 72.21c.476 0 .76-.111.85-.213.142-.162.223-.749-.11-1.71-.456-1.306-1.499-2.733-2.855-3.918-1.356-1.184-2.905-2.024-4.261-2.307a4.243 4.243 0 0 0-.86-.102c-.203 0-.375.02-.517.051-.172.04-.283.101-.344.162-.142.162-.223.749.111 1.71.456 1.306 1.498 2.734 2.855 3.918 1.356 1.184 2.905 2.024 4.261 2.308.334.07.628.1.86.1M35.75 0l-1.893 2.379L18.32 21.894l-2.176 2.733 2.692 2.217 24.607 20.213-7.197 5.72-16.732 6.63c-2.277-1.812-4.858-3.078-7.359-3.594a12.36 12.36 0 0 0-2.55-.273c-2.905 0-5.476 1.103-7.217 3.097C.109 61.25-.437 64.913.899 68.698c.941 2.673 2.804 5.325 5.253 7.46 2.45 2.136 5.324 3.634 8.098 4.211.86.182 1.72.273 2.55.273.83 0 1.701-.1 2.49-.283 1.873-.445 3.503-1.417 4.717-2.804 1.832-2.095 2.541-4.879 2.065-7.854l4.859-1.924c.364.901.81 1.822 1.346 2.774 2.187 3.897 5.76 8.118 10.062 11.903 4.312 3.786 8.958 6.792 13.097 8.452 2.52 1.012 4.839 1.529 6.894 1.529.89 0 1.75-.102 2.56-.294 1.822-.435 3.401-1.376 4.586-2.723a8.653 8.653 0 0 0 1.488-2.399l6.053-12.561 29.789 24.364 2.783 2.277 2.237-2.824 26.368-33.322 2.551-3.229-3.573-2.044-34.698-19.87-.365-.213 25.417-9.889c2.976 2.46 6.367 4.17 9.626 4.849 1.073.222 2.125.334 3.128.334 1.002 0 1.973-.112 2.884-.324 2.116-.506 3.968-1.61 5.345-3.178 2.601-2.976 3.198-7.228 1.629-11.671l-1.032-2.369c-1.306-2.52-3.239-4.95-5.618-7.024-3.107-2.713-6.731-4.606-10.193-5.325a15.29 15.29 0 0 0-3.127-.334c-3.32 0-6.246 1.245-8.23 3.513-2.571 2.945-3.178 7.136-1.68 11.529L98.162 28.3c-1.417-2.237-3.381-4.423-5.689-6.306-3.158-2.58-6.873-4.362-10.466-5.03a16.42 16.42 0 0 0-2.936-.274c-3.451 0-6.376 1.235-8.26 3.482l-2.722-1.569L38.391 1.518 35.749 0Zm-2.905 22.866 5.86-7.359.932.537-5.942 7.51-.84-.688h-.01Zm105.411-.436c-.961-.404-2.146-1.093-3.421-2.196-1.296-1.134-2.126-2.217-2.632-3.097.962.404 2.146 1.093 3.421 2.196 1.296 1.134 2.126 2.217 2.632 3.098Zm-95.32 8.726 7.187-9.08 3.533 2.035-7.612 9.606-3.107-2.551v-.01Zm47.25 38.615 12.633-15.962 4.292 2.46-13.139 16.61-3.796-3.097.01-.01ZM51.672 55.995l2.328-1.984c.223 0 .648.051 1.316.243 1.103.324 2.379.952 3.705 1.782l-3.614 4.372a48.352 48.352 0 0 0-5.213-3.42l1.387-1.104.101.111h-.01Zm51.572 24.455 14.383-18.169 5.112 2.925-14.981 18.929-4.504-3.685h-.01ZM40.445 131.161v-5.618h-5.233v5.618h-4.758v-14.808h4.758v5.405h5.233v-5.405h4.757v14.808h-4.757ZM60.871 129.825c-1.275 1.063-3.097 1.589-5.445 1.589-2.349 0-4.17-.526-5.456-1.589-1.285-1.063-1.923-2.601-1.923-4.626v-8.846h4.757v8.785c0 .831.223 1.499.668 1.995.446.496 1.093.738 1.934.738.84 0 1.498-.253 1.943-.749.456-.506.678-1.164.678-1.984v-8.785h4.758v8.846c0 2.025-.638 3.563-1.913 4.626ZM77.543 116.818c.627.314 1.123.739 1.487 1.306.365.557.547 1.184.547 1.872 0 1.822-.83 2.966-2.48 3.442v.081c1.883.435 2.824 1.67 2.824 3.705 0 .769-.192 1.457-.567 2.054a3.828 3.828 0 0 1-1.558 1.387c-.658.334-1.387.496-2.177.496h-9.99v-14.808h9.859c.749 0 1.427.151 2.055.465Zm-7.157 5.304h3.27c.313 0 .577-.111.79-.334.212-.223.313-.496.313-.83v-.212c0-.314-.111-.588-.324-.81a1.04 1.04 0 0 0-.78-.334h-3.269v2.52Zm0 5.598H74c.314 0 .577-.112.79-.334.212-.223.313-.496.313-.83v-.213c0-.334-.101-.607-.314-.83a1.031 1.031 0 0 0-.79-.334h-3.613v2.541ZM93.952 116.818c.627.314 1.123.739 1.488 1.306.364.557.546 1.184.546 1.872 0 1.822-.83 2.966-2.48 3.442v.081c1.883.435 2.824 1.67 2.824 3.705 0 .769-.192 1.457-.566 2.054a3.828 3.828 0 0 1-1.56 1.387 4.874 4.874 0 0 1-2.175.496h-9.99v-14.808h9.858c.749 0 1.427.151 2.055.465Zm-7.156 5.304h3.269c.314 0 .577-.111.79-.334a1.19 1.19 0 0 0 .313-.83v-.212a1.14 1.14 0 0 0-.324-.81 1.04 1.04 0 0 0-.78-.334h-3.268v2.52Zm0 5.598h3.613c.314 0 .577-.112.79-.334.212-.223.313-.496.313-.83v-.213c0-.334-.1-.607-.313-.83a1.031 1.031 0 0 0-.79-.334h-3.614v2.541ZM98.435 116.353h4.757v11.022h7.602v3.786h-12.36v-14.808ZM112.443 116.353h12.805v3.552h-8.047v2.045h6.893v3.401h-6.893v2.257h8.199v3.553h-12.957v-14.808Z" fill="#fff"/><path d="M65.144 35.954 75.782 23.91c7.075-4.757 21.661 7.683 18.523 14.282L83.788 51.795c2.349-3.876-9.686-18.34-18.644-15.83v-.01Z" fill="#fff"/><path d="m54.616 48.05 9.242-10.598c7.075-4.757 23.584 8.36 19.16 15.315L73.93 64.539c.952-2.713-12.248-18.3-19.313-16.49Z" fill="#fff"/><path d="m37.217 59.66 13.837-10.922c7.075-4.757 26.712 12.582 22.288 19.536L65.56 85.016c1.143-11.114-20.66-27.522-28.342-25.356Z" fill="#fff"/><path d="m94.912 81.341 21.257-26.863 15.568 8.988-23.069 29.152-13.766-11.276h.01Z" fill="#8162AA"/><path d="m81.915 70.966 19.414-24.92 14.515 8.837-21.003 26.58-12.926-10.497Z" fill="#6389C6"/><path d="m34.605 32.056 14.263-17.613 13.806 7.936-15.71 19.82-12.358-10.143Z" fill="#98CA3F"/><path d="M24.503 23.747 37.236 7.754l11.408 6.559-14.04 17.744-10.101-8.31Z" fill="#CBDD72"/><path d="M64.982 85.46c2.44-2.773-1.974-10.638-9.849-17.572-7.875-6.923-16.245-10.294-18.685-7.52-2.44 2.773 1.974 10.638 9.849 17.571 7.875 6.924 16.246 10.295 18.685 7.521Z" fill="#F8C519"/><path d="M144.005 27.441c2.389-2.733.405-8.39-4.444-12.622-4.848-4.231-10.709-5.456-13.108-2.713-2.389 2.733-.395 8.391 4.454 12.623 4.848 4.23 10.719 5.455 13.108 2.712h-.01Z" fill="#F07525"/><path d="M19.523 73.598c1.721-1.964.284-6.033-3.198-9.07-3.482-3.046-7.703-3.917-9.424-1.953-1.72 1.964-.283 6.033 3.199 9.07 3.482 3.046 7.703 3.917 9.423 1.953Z" fill="#E8282B"/><path d="M146.808 20.893c-.971-2.774-2.976-5.578-5.638-7.906-2.652-2.318-5.708-3.927-8.583-4.524-3.371-.699-6.205.02-7.966 2.034-1.761 2.014-2.095 4.92-.952 8.169.355.992.83 1.984 1.428 2.965L96.512 32.745a15.145 15.145 0 0 0-.253-.597c-1.154-2.56-3.29-5.202-6.003-7.42-2.702-2.206-5.85-3.734-8.867-4.28-3.43-.628-6.295.12-7.874 2.044h.01L62.654 35.114l-4.464-3.148 8.148-10.284L36.63 4.586 21.092 24.1l26.237 21.56 7.824-9.869 4.292 3.037-5.82 6.761c-1.731.061-3.26.557-4.505 1.529l-.02-.02-11.063 8.786-19.252 7.622a16.659 16.659 0 0 0-.871-.82c-1.994-1.741-4.302-2.956-6.478-3.411-2.642-.547-4.97.07-6.377 1.69-1.417 1.62-1.71 4.008-.82 6.549.74 2.105 2.247 4.22 4.241 5.972 1.994 1.74 4.302 2.956 6.478 3.411 1.266.263 2.45.263 3.503 0 1.154-.273 2.135-.85 2.874-1.69 1.417-1.62 1.71-4.009.82-6.55a11.75 11.75 0 0 0-.435-1.062l11.62-4.606c.111 1.529.688 3.432 2.024 5.81 1.995 3.553 5.294 7.45 9.313 10.983 4.008 3.532 8.3 6.306 12.086 7.824 3.3 1.326 5.638 1.478 7.298 1.083 1.285-.303 2.155-.941 2.743-1.61.344-.394.668-.88.9-1.487l7.875-16.347a7.671 7.671 0 0 0 .85-3.968l7.45-9.647 4.313 3.047-9.778 12.36 30.609 25.031 26.368-33.322-34.699-19.87-9.464 11.965-4.362-3.077 9.342-12.086-.02-.02a5.64 5.64 0 0 0 .84-1.903l31.227-12.146c.324.323.668.637 1.012.94 2.652 2.319 5.709 3.928 8.583 4.525 1.64.345 3.148.345 4.464.03 1.397-.333 2.591-1.032 3.492-2.064 1.762-2.014 2.106-4.92.952-8.169l.05.02ZM17.681 71.989c-.142.162-.708.324-1.71.121-1.357-.283-2.905-1.123-4.262-2.308-1.356-1.184-2.389-2.611-2.854-3.917-.344-.961-.253-1.549-.112-1.71.051-.061.162-.122.345-.162.293-.071.749-.081 1.376.04 1.357.284 2.905 1.124 4.262 2.308 1.356 1.184 2.388 2.611 2.854 3.917.344.962.253 1.549.111 1.71h-.01Zm110.391-7.825-19.768 24.982-9.99-8.169 18.432-23.29 11.326 6.488v-.01Zm-26.125-14.96 10.517 6.023L94.538 77.88l-9.272-7.592 16.692-21.094-.011.01ZM27.904 23.383l9.93-12.47 7.136 4.099-10.74 13.563-6.325-5.203v.01ZM46.59 38.738l-8.584-7.055 11.246-14.201 9.747 5.607-12.41 15.659v-.01Zm16.56 45.114c-.183.152-1.6.465-4.819-.88-3.218-1.347-6.923-3.786-10.415-6.863-3.502-3.078-6.387-6.438-8.138-9.454-1.761-3.037-1.62-4.474-1.498-4.667.03-.03.1-.06.222-.09.527-.122 1.954-.143 4.606.97.83.345 1.68.76 2.56 1.246-.465 1.943 1.509 5.445 4.93 8.452 3.502 3.077 7.318 4.585 9.14 3.755a27.278 27.278 0 0 1 1.924 2.865c1.75 3.026 1.62 4.463 1.488 4.666Zm-7.228-18.503c-3.765-3.189-7.733-5.699-11.255-7.116a17.11 17.11 0 0 0-1.185-.435l8.543-6.792.02.02c.79-.678 2.349-.739 4.282-.162 2.379.709 5.142 2.318 7.814 4.555l-8.219 9.94v-.01Zm8.726-15.7c-1.883-1.305-3.735-2.307-5.497-2.986l6.458-7.5c.446-.364 1.62-.597 3.34-.283 1.144.212 2.359.627 3.543 1.204l-7.844 9.565Zm5.314-15.547 7.338-8.523h-.01c.273-.334 1.346-.678 3.209-.334 1.214.223 2.5.688 3.755 1.346l-8.36 9.788c-1.924-1.103-3.959-1.882-5.932-2.267v-.01Zm72.221-8.26c-1.114 1.276-5.426.75-9.657-2.945-4.231-3.705-5.324-7.906-4.211-9.181.213-.243.547-.425.972-.526 1.792-.425 5.264.486 8.685 3.472 4.231 3.704 5.324 7.905 4.211 9.18Z" fill="#333"/></svg>
