<svg width="125" height="62" viewBox="0 0 125 62" fill="none" xmlns="http://www.w3.org/2000/svg">
<path d="M4.16667 54.4724V61.811H2.5V54.4724H0V52.9971H6.70455V54.4724H4.16667Z" fill="#1A1A18"/>
<path d="M10.7188 61.8488V53.0349H16.5521V54.5102H12.3854V56.6664H16.0597V58.1417H12.3854V60.4114H16.5521V61.8867H10.7188V61.8488Z" fill="#1A1A18"/>
<path d="M24.4312 62.0001C23.863 62.0001 23.3327 61.8866 22.8403 61.6974C22.3858 61.5083 21.9691 61.2057 21.6282 60.8274C21.2873 60.4491 21.0221 59.9952 20.8706 59.4278C20.6812 58.8603 20.6055 58.2173 20.6055 57.4607C20.6055 56.7041 20.6812 56.0611 20.8706 55.4937C21.06 54.9262 21.2873 54.4345 21.6282 54.0562C21.9691 53.6779 22.3479 53.3753 22.8403 53.1483C23.2949 52.9592 23.8252 52.8457 24.4312 52.8457C25.2267 52.8457 25.8706 52.997 26.4009 53.3375C26.9312 53.6779 27.3479 54.1697 27.6509 54.8506L26.2115 55.6071C26.0979 55.2289 25.8706 54.8884 25.6055 54.6614C25.3024 54.4345 24.9236 54.2832 24.4312 54.2832C23.7873 54.2832 23.2949 54.5101 22.954 54.9262C22.5752 55.3423 22.3858 55.9476 22.3858 56.7041V58.1038C22.3858 58.8603 22.5752 59.4656 22.954 59.8817C23.3327 60.2978 23.8252 60.4869 24.4312 60.4869C24.9236 60.4869 25.3403 60.3356 25.6433 60.0708C25.9464 59.806 26.1736 59.4656 26.3252 59.0873L27.6888 59.8817C27.3858 60.5248 26.9312 61.0544 26.4009 61.4326C25.8706 61.8109 25.2267 62.0001 24.4312 62.0001Z" fill="#1A1A18"/>
<path d="M37.1222 58.1039H33.4479V61.8488H31.7812V53.0349H33.4479V56.6664H37.1222V53.0349H38.7888V61.8488H37.1222V58.1039Z" fill="#1A1A18"/>
<path d="M46.0984 57.3095L45.1893 55.4559H45.1515V61.811H43.5605V52.9971H45.4166L48.0681 57.5364L48.9772 59.39H49.0151V53.0349H50.606V61.8488H48.7499L46.0984 57.3095Z" fill="#1A1A18"/>
<path d="M58.7875 62.0001C58.2193 62.0001 57.689 61.8866 57.1966 61.6974C56.742 61.5083 56.3253 61.2057 55.9844 60.8274C55.6435 60.4491 55.3784 59.9573 55.189 59.3899C54.9996 58.8225 54.9238 58.1794 54.9238 57.4229C54.9238 56.6663 54.9996 56.0232 55.189 55.4558C55.3784 54.8884 55.6435 54.3966 55.9844 54.0184C56.3253 53.6401 56.7041 53.3375 57.1966 53.1483C57.6511 52.9592 58.1814 52.8457 58.7875 52.8457C59.3556 52.8457 59.8859 52.9592 60.3784 53.1483C60.8329 53.3375 61.2496 53.6401 61.5905 54.0184C61.9314 54.3966 62.1966 54.8884 62.386 55.4558C62.5753 56.0232 62.6511 56.6663 62.6511 57.4229C62.6511 58.1794 62.5753 58.8225 62.386 59.3899C62.1966 59.9573 61.9314 60.4491 61.5905 60.8274C61.2496 61.2057 60.8329 61.5083 60.3784 61.6974C59.8859 61.8866 59.3556 62.0001 58.7875 62.0001ZM58.7875 60.5248C59.4314 60.5248 59.9238 60.2978 60.3026 59.8817C60.6814 59.4656 60.8708 58.8603 60.8708 58.1038V56.742C60.8708 55.9854 60.6814 55.3802 60.3026 54.9641C59.9238 54.548 59.4314 54.321 58.7875 54.321C58.1435 54.321 57.6511 54.548 57.2723 54.9641C56.8935 55.3802 56.7041 55.9854 56.7041 56.742V58.1038C56.7041 58.8603 56.8935 59.4656 57.2723 59.8817C57.6511 60.2978 58.1435 60.5248 58.7875 60.5248Z" fill="#1A1A18"/>
<path d="M67.0078 61.8488V53.0349H68.6745V60.3735H72.1593V61.8488H67.0078Z" fill="#1A1A18"/>
<path d="M79.1664 62.0001C78.5982 62.0001 78.0679 61.8866 77.5755 61.6974C77.1209 61.5083 76.7043 61.2057 76.3633 60.8274C76.0224 60.4491 75.7573 59.9573 75.5679 59.3899C75.3785 58.8225 75.3027 58.1794 75.3027 57.4229C75.3027 56.6663 75.3785 56.0232 75.5679 55.4558C75.7573 54.8884 76.0224 54.3966 76.3633 54.0184C76.7043 53.6401 77.083 53.3375 77.5755 53.1483C78.03 52.9592 78.5603 52.8457 79.1664 52.8457C79.7346 52.8457 80.2649 52.9592 80.7573 53.1483C81.2118 53.3375 81.6285 53.6401 81.9694 54.0184C82.3103 54.3966 82.5755 54.8884 82.7649 55.4558C82.9543 56.0232 83.03 56.6663 83.03 57.4229C83.03 58.1794 82.9543 58.8225 82.7649 59.3899C82.5755 59.9573 82.3103 60.4491 81.9694 60.8274C81.6285 61.2057 81.2118 61.5083 80.7573 61.6974C80.2649 61.8866 79.7346 62.0001 79.1664 62.0001ZM79.1664 60.5248C79.8103 60.5248 80.3027 60.2978 80.6815 59.8817C81.0603 59.4656 81.2497 58.8603 81.2497 58.1038V56.742C81.2497 55.9854 81.0603 55.3802 80.6815 54.9641C80.3027 54.548 79.8103 54.321 79.1664 54.321C78.5224 54.321 78.03 54.548 77.6512 54.9641C77.2724 55.3802 77.083 55.9854 77.083 56.742V58.1038C77.083 58.8603 77.2724 59.4656 77.6512 59.8817C78.03 60.2978 78.5224 60.5248 79.1664 60.5248Z" fill="#1A1A18"/>
<path d="M93.031 60.4869H92.9931C92.9173 60.9031 92.69 61.2813 92.2734 61.584C91.8567 61.8866 91.3264 62.0379 90.6825 62.0379C90.1522 62.0379 89.6597 61.9244 89.2431 61.7353C88.7885 61.5461 88.4097 61.2435 88.1067 60.8652C87.7658 60.4869 87.5385 59.9952 87.3491 59.4278C87.1597 58.8604 87.084 58.2173 87.084 57.4607C87.084 56.7042 87.1976 56.0611 87.387 55.4937C87.5764 54.9262 87.8416 54.4345 88.1825 54.0562C88.5234 53.6779 88.94 53.3753 89.4325 53.1862C89.9249 52.997 90.4552 52.8835 91.0234 52.8835C91.8188 52.8835 92.5006 53.0727 93.0688 53.4131C93.637 53.7536 94.0537 54.2453 94.3946 54.8884L93.031 55.6828C92.8794 55.3045 92.6143 55.0019 92.3113 54.7371C92.0082 54.4723 91.5537 54.3588 91.0234 54.3588C90.3794 54.3588 89.8491 54.548 89.4325 54.9641C89.0537 55.3802 88.8264 55.9476 88.8264 56.742V58.1416C88.8264 58.936 89.0158 59.5034 89.4325 59.9195C89.8113 60.3356 90.3794 60.5248 91.0234 60.5248C91.2885 60.5248 91.5158 60.4869 91.7431 60.4113C91.9703 60.3356 92.1597 60.26 92.3491 60.1087C92.5007 59.9952 92.6522 59.8439 92.7658 59.6547C92.8794 59.4656 92.9173 59.2386 92.9173 59.0117V58.4442H91.1749V57.0446H94.5082V61.8488H93.0688V60.4869H93.031Z" fill="#1A1A18"/>
<path d="M99.2051 61.8488V60.5248V54.3589V53.0349H100.872V54.3589V60.5248V61.8488H99.2051Z" fill="#1A1A18"/>
<path d="M105.795 61.8488V53.0349H111.628V54.5102H107.462V56.6664H111.136V58.1417H107.462V60.4114H111.628V61.8867H105.795V61.8488Z" fill="#1A1A18"/>
<path d="M118.674 62C117.917 62 117.273 61.8487 116.743 61.5839C116.212 61.3191 115.758 60.9409 115.379 60.5248L116.515 59.4277C116.818 59.7682 117.159 60.033 117.538 60.2221C117.917 60.4113 118.333 60.4869 118.788 60.4869C119.318 60.4869 119.697 60.3734 119.962 60.1465C120.227 59.9195 120.341 59.6169 120.341 59.2386C120.341 58.936 120.265 58.709 120.076 58.5199C119.924 58.3307 119.583 58.2173 119.129 58.1038L118.296 57.9903C116.515 57.7255 115.644 56.8554 115.644 55.418C115.644 55.0397 115.72 54.6614 115.871 54.3588C116.023 54.0562 116.25 53.7536 116.515 53.5266C116.78 53.2996 117.121 53.1105 117.538 52.997C117.917 52.8835 118.371 52.8079 118.864 52.8079C119.546 52.8079 120.114 52.9213 120.606 53.1483C121.099 53.3753 121.515 53.6779 121.894 54.1318L120.758 55.191C120.53 54.9262 120.265 54.6993 119.962 54.5479C119.659 54.3966 119.243 54.2831 118.788 54.2831C118.296 54.2831 117.955 54.3588 117.69 54.5479C117.462 54.7371 117.311 54.964 117.311 55.3045C117.311 55.645 117.424 55.8719 117.614 56.0611C117.803 56.2124 118.106 56.3259 118.561 56.4015L119.394 56.5528C120.303 56.7041 120.947 57.0068 121.364 57.4229C121.78 57.839 122.008 58.4064 122.008 59.1251C122.008 59.5412 121.932 59.9195 121.78 60.26C121.629 60.6004 121.402 60.903 121.136 61.13C120.871 61.3948 120.493 61.5839 120.114 61.6974C119.659 61.9244 119.205 62 118.674 62Z" fill="#1A1A18"/>
<path d="M4.16667 54.4724V61.811H2.5V54.4724H0V52.9971H6.70455V54.4724H4.16667Z" fill="#1A1A18"/>
<path d="M10.7188 61.8488V53.0349H16.5521V54.5102H12.3854V56.6664H16.0597V58.1417H12.3854V60.4114H16.5521V61.8867H10.7188V61.8488Z" fill="#1A1A18"/>
<path d="M24.4312 62.0001C23.863 62.0001 23.3327 61.8866 22.8403 61.6974C22.3858 61.5083 21.9691 61.2057 21.6282 60.8274C21.2873 60.4491 21.0221 59.9952 20.8706 59.4278C20.6812 58.8603 20.6055 58.2173 20.6055 57.4607C20.6055 56.7041 20.6812 56.0611 20.8706 55.4937C21.06 54.9262 21.2873 54.4345 21.6282 54.0562C21.9691 53.6779 22.3479 53.3753 22.8403 53.1483C23.2949 52.9592 23.8252 52.8457 24.4312 52.8457C25.2267 52.8457 25.8706 52.997 26.4009 53.3375C26.9312 53.6779 27.3479 54.1697 27.6509 54.8506L26.2115 55.6071C26.0979 55.2289 25.8706 54.8884 25.6055 54.6614C25.3024 54.4345 24.9236 54.2832 24.4312 54.2832C23.7873 54.2832 23.2949 54.5101 22.954 54.9262C22.5752 55.3423 22.3858 55.9476 22.3858 56.7041V58.1038C22.3858 58.8603 22.5752 59.4656 22.954 59.8817C23.3327 60.2978 23.8252 60.4869 24.4312 60.4869C24.9236 60.4869 25.3403 60.3356 25.6433 60.0708C25.9464 59.806 26.1736 59.4656 26.3252 59.0873L27.6888 59.8817C27.3858 60.5248 26.9312 61.0544 26.4009 61.4326C25.8706 61.8109 25.2267 62.0001 24.4312 62.0001Z" fill="#1A1A18"/>
<path d="M37.1222 58.1039H33.4479V61.8488H31.7812V53.0349H33.4479V56.6664H37.1222V53.0349H38.7888V61.8488H37.1222V58.1039Z" fill="#1A1A18"/>
<path d="M46.0984 57.3095L45.1893 55.4559H45.1515V61.811H43.5605V52.9971H45.4166L48.0681 57.5364L48.9772 59.39H49.0151V53.0349H50.606V61.8488H48.7499L46.0984 57.3095Z" fill="#1A1A18"/>
<path d="M58.7875 62.0001C58.2193 62.0001 57.689 61.8866 57.1966 61.6974C56.742 61.5083 56.3253 61.2057 55.9844 60.8274C55.6435 60.4491 55.3784 59.9573 55.189 59.3899C54.9996 58.8225 54.9238 58.1794 54.9238 57.4229C54.9238 56.6663 54.9996 56.0232 55.189 55.4558C55.3784 54.8884 55.6435 54.3966 55.9844 54.0184C56.3253 53.6401 56.7041 53.3375 57.1966 53.1483C57.6511 52.9592 58.1814 52.8457 58.7875 52.8457C59.3556 52.8457 59.8859 52.9592 60.3784 53.1483C60.8329 53.3375 61.2496 53.6401 61.5905 54.0184C61.9314 54.3966 62.1966 54.8884 62.386 55.4558C62.5753 56.0232 62.6511 56.6663 62.6511 57.4229C62.6511 58.1794 62.5753 58.8225 62.386 59.3899C62.1966 59.9573 61.9314 60.4491 61.5905 60.8274C61.2496 61.2057 60.8329 61.5083 60.3784 61.6974C59.8859 61.8866 59.3556 62.0001 58.7875 62.0001ZM58.7875 60.5248C59.4314 60.5248 59.9238 60.2978 60.3026 59.8817C60.6814 59.4656 60.8708 58.8603 60.8708 58.1038V56.742C60.8708 55.9854 60.6814 55.3802 60.3026 54.9641C59.9238 54.548 59.4314 54.321 58.7875 54.321C58.1435 54.321 57.6511 54.548 57.2723 54.9641C56.8935 55.3802 56.7041 55.9854 56.7041 56.742V58.1038C56.7041 58.8603 56.8935 59.4656 57.2723 59.8817C57.6511 60.2978 58.1435 60.5248 58.7875 60.5248Z" fill="#1A1A18"/>
<path d="M67.0078 61.8488V53.0349H68.6745V60.3735H72.1593V61.8488H67.0078Z" fill="#1A1A18"/>
<path d="M79.1664 62.0001C78.5982 62.0001 78.0679 61.8866 77.5755 61.6974C77.1209 61.5083 76.7043 61.2057 76.3633 60.8274C76.0224 60.4491 75.7573 59.9573 75.5679 59.3899C75.3785 58.8225 75.3027 58.1794 75.3027 57.4229C75.3027 56.6663 75.3785 56.0232 75.5679 55.4558C75.7573 54.8884 76.0224 54.3966 76.3633 54.0184C76.7043 53.6401 77.083 53.3375 77.5755 53.1483C78.03 52.9592 78.5603 52.8457 79.1664 52.8457C79.7346 52.8457 80.2649 52.9592 80.7573 53.1483C81.2118 53.3375 81.6285 53.6401 81.9694 54.0184C82.3103 54.3966 82.5755 54.8884 82.7649 55.4558C82.9543 56.0232 83.03 56.6663 83.03 57.4229C83.03 58.1794 82.9543 58.8225 82.7649 59.3899C82.5755 59.9573 82.3103 60.4491 81.9694 60.8274C81.6285 61.2057 81.2118 61.5083 80.7573 61.6974C80.2649 61.8866 79.7346 62.0001 79.1664 62.0001ZM79.1664 60.5248C79.8103 60.5248 80.3027 60.2978 80.6815 59.8817C81.0603 59.4656 81.2497 58.8603 81.2497 58.1038V56.742C81.2497 55.9854 81.0603 55.3802 80.6815 54.9641C80.3027 54.548 79.8103 54.321 79.1664 54.321C78.5224 54.321 78.03 54.548 77.6512 54.9641C77.2724 55.3802 77.083 55.9854 77.083 56.742V58.1038C77.083 58.8603 77.2724 59.4656 77.6512 59.8817C78.03 60.2978 78.5224 60.5248 79.1664 60.5248Z" fill="#1A1A18"/>
<path d="M93.031 60.4869H92.9931C92.9173 60.9031 92.69 61.2813 92.2734 61.584C91.8567 61.8866 91.3264 62.0379 90.6825 62.0379C90.1522 62.0379 89.6597 61.9244 89.2431 61.7353C88.7885 61.5461 88.4097 61.2435 88.1067 60.8652C87.7658 60.4869 87.5385 59.9952 87.3491 59.4278C87.1597 58.8604 87.084 58.2173 87.084 57.4607C87.084 56.7042 87.1976 56.0611 87.387 55.4937C87.5764 54.9262 87.8416 54.4345 88.1825 54.0562C88.5234 53.6779 88.94 53.3753 89.4325 53.1862C89.9249 52.997 90.4552 52.8835 91.0234 52.8835C91.8188 52.8835 92.5006 53.0727 93.0688 53.4131C93.637 53.7536 94.0537 54.2453 94.3946 54.8884L93.031 55.6828C92.8794 55.3045 92.6143 55.0019 92.3113 54.7371C92.0082 54.4723 91.5537 54.3588 91.0234 54.3588C90.3794 54.3588 89.8491 54.548 89.4325 54.9641C89.0537 55.3802 88.8264 55.9476 88.8264 56.742V58.1416C88.8264 58.936 89.0158 59.5034 89.4325 59.9195C89.8113 60.3356 90.3794 60.5248 91.0234 60.5248C91.2885 60.5248 91.5158 60.4869 91.7431 60.4113C91.9703 60.3356 92.1597 60.26 92.3491 60.1087C92.5007 59.9952 92.6522 59.8439 92.7658 59.6547C92.8794 59.4656 92.9173 59.2386 92.9173 59.0117V58.4442H91.1749V57.0446H94.5082V61.8488H93.0688V60.4869H93.031Z" fill="#1A1A18"/>
<path d="M99.2051 61.8488V60.5248V54.3589V53.0349H100.872V54.3589V60.5248V61.8488H99.2051Z" fill="#1A1A18"/>
<path d="M105.795 61.8488V53.0349H111.628V54.5102H107.462V56.6664H111.136V58.1417H107.462V60.4114H111.628V61.8867H105.795V61.8488Z" fill="#1A1A18"/>
<path d="M118.674 62C117.917 62 117.273 61.8487 116.743 61.5839C116.212 61.3191 115.758 60.9409 115.379 60.5248L116.515 59.4277C116.818 59.7682 117.159 60.033 117.538 60.2221C117.917 60.4113 118.333 60.4869 118.788 60.4869C119.318 60.4869 119.697 60.3734 119.962 60.1465C120.227 59.9195 120.341 59.6169 120.341 59.2386C120.341 58.936 120.265 58.709 120.076 58.5199C119.924 58.3307 119.583 58.2173 119.129 58.1038L118.296 57.9903C116.515 57.7255 115.644 56.8554 115.644 55.418C115.644 55.0397 115.72 54.6614 115.871 54.3588C116.023 54.0562 116.25 53.7536 116.515 53.5266C116.78 53.2996 117.121 53.1105 117.538 52.997C117.917 52.8835 118.371 52.8079 118.864 52.8079C119.546 52.8079 120.114 52.9213 120.606 53.1483C121.099 53.3753 121.515 53.6779 121.894 54.1318L120.758 55.191C120.53 54.9262 120.265 54.6993 119.962 54.5479C119.659 54.3966 119.243 54.2831 118.788 54.2831C118.296 54.2831 117.955 54.3588 117.69 54.5479C117.462 54.7371 117.311 54.964 117.311 55.3045C117.311 55.645 117.424 55.8719 117.614 56.0611C117.803 56.2124 118.106 56.3259 118.561 56.4015L119.394 56.5528C120.303 56.7041 120.947 57.0068 121.364 57.4229C121.78 57.839 122.008 58.4064 122.008 59.1251C122.008 59.5412 121.932 59.9195 121.78 60.26C121.629 60.6004 121.402 60.903 121.136 61.13C120.871 61.3948 120.493 61.5839 120.114 61.6974C119.659 61.9244 119.205 62 118.674 62Z" fill="#1A1A18"/>
<path d="M53.4102 0.0378418V9.30569L71.895 9.26786C77.5389 9.26786 82.1602 13.8072 82.1602 19.4436C82.1602 25.0799 77.5389 29.468 71.895 29.468H63.6753V11.8402H53.4102V38.8493H71.895C82.6526 38.8493 91.4026 30.2624 91.4026 19.5192C91.4026 8.7761 82.6905 0.0378418 71.9329 0.0378418H53.4102Z" fill="#005798"/>
<path d="M46.062 29.241H35.7969V38.8493H46.062V29.241Z" fill="#005798"/>
<path d="M32.5005 0L23.1444 13.5046L13.7884 0H3.10653C1.5535 0.0378279 0.265625 1.32398 0.265625 2.87492C0.265625 3.02624 0.265625 38.8493 0.265625 38.8493H10.5308V12.8237L23.1444 30.8676L35.758 12.8237V26.7065H46.0232V0H32.5005Z" fill="#005798"/>
<path d="M113.334 29.3167H103.068V38.8493H113.334V29.3167Z" fill="#005798"/>
<path d="M91.2129 0V9.26785C91.2129 9.26785 99.925 9.26785 100.077 9.26785C101.819 9.23002 103.069 10.6297 103.069 12.1806C103.069 13.6559 103.069 26.7065 103.069 26.7065H113.334V9.49481H125.001V0H91.2129Z" fill="#005798"/>
</svg>
