<?xml version="1.0" encoding="utf-8"?>
<!-- Generator: Adobe Illustrator 22.1.0, SVG Export Plug-In . SVG Version: 6.00 Build 0)  -->
<svg version="1.1" id="_x34_C" xmlns="http://www.w3.org/2000/svg" xmlns:xlink="http://www.w3.org/1999/xlink" x="0px" y="0px"
	 viewBox="0 0 595.3 196.5" style="enable-background:new 0 0 595.3 196.5;" xml:space="preserve">
<style type="text/css">
	.st0{fill:#D20000;}
	.st1{fill-rule:evenodd;clip-rule:evenodd;}
</style>
<polygon class="st0" points="67.6,136.9 118.3,136.9 118.3,189.5 67.6,189.5 67.6,136.9 "/>
<polygon class="st0" points="0,58.5 14.8,58.5 14.8,111.2 0,111.2 0,58.5 "/>
<polygon class="st0" points="25.4,22.8 33.9,22.8 33.9,75.4 25.4,75.4 25.4,22.8 "/>
<polygon class="st0" points="46.5,6.3 50.8,6.3 50.8,59 46.5,59 46.5,6.3 "/>
<polygon class="st0" points="25.4,102.9 50.7,102.9 50.7,155.5 25.4,155.5 25.4,102.9 "/>
<polygon points="304.9,65.5 366.2,65.5 366.2,77 316.2,77 316.2,86.5 363.9,86.5 363.9,96.3 316.2,96.3 316.2,106.5 366.2,106.5
	366.2,118.1 305,118.1 304.9,65.5 "/>
<polygon points="152.8,65.5 214.1,65.5 214.1,77 164.1,77 164.1,86.5 211.8,86.5 211.8,96.3 164.1,96.3 164.1,106.5 214.1,106.5
	214.1,118.1 152.8,118.1 152.8,65.5 "/>
<polygon points="76.7,65.5 137.8,65.5 137.8,77 112.5,77 112.5,118.1 101.9,118.1 101.9,77 76.7,77 76.7,65.5 "/>
<polygon points="381.1,64.9 381.1,118.1 391.9,118.1 391.9,86 442.5,118.6 442.5,65.5 431.8,65.5 431.8,97.6 381.1,64.9 "/>
<polygon points="229.1,65.5 240.3,65.5 240.3,106.6 290.4,106.6 290.4,118.2 229.1,118.2 229.1,65.5 "/>
<path class="st1" d="M468.4,77h39v29.4h-39V77L468.4,77z M469.6,65.5h36.7c6.8,0,12.4,5.6,12.4,12.4v27.8c0,6.9-5.5,12.4-12.4,12.4
	h-36.7c-6.8,0-12.4-5.6-12.4-12.4V77.9C457.2,71.1,462.7,65.5,469.6,65.5L469.6,65.5z"/>
<polygon points="533.4,65.5 594.6,65.5 594.6,77 569.3,77 569.3,118.1 558.6,118.1 558.6,77 533.4,77 533.4,65.5 "/>
<g>
	<path d="M203.5,174.8c1.6,1.1,4,1.9,6.6,1.9c2.8,0,5.4-1.5,5.4-4.3c0-1.9-1.3-3.2-4.1-4.7c-3.4-1.8-5.9-4.2-5.9-7.6
		c0-5.6,4.9-9.1,10.8-9.1c3.3,0,5.4,0.8,6.5,1.5l-1.6,4.2c-1-0.5-2.9-1.3-5.3-1.3c-3.2,0-5,1.9-5,3.8c0,2,1.6,3.2,4.4,4.7
		c3.6,1.9,5.7,4.2,5.7,7.8c0,5.9-4.7,9.5-11.3,9.5c-3.6,0-6.5-1-7.8-2L203.5,174.8z"/>
	<path d="M240.6,179.4c-2.1,1.1-4.9,1.6-7.5,1.6c-5.9,0-8.7-3.6-8.7-8.7c0-6.4,4.7-13.3,12-13.3c4.2,0,6.8,2.4,6.8,5.9
		c0,5.4-5.7,7.2-13.8,7c-0.1,0.7,0.1,2.2,0.6,3c0.8,1.4,2.3,2.2,4.3,2.2c2.4,0,4.3-0.6,5.8-1.4L240.6,179.4z M235.8,162.7
		c-3.2,0-5.3,2.8-5.9,5.4c5.2,0.1,8.5-0.7,8.5-3.2C238.5,163.6,237.4,162.7,235.8,162.7z"/>
	<path d="M260.1,179.8c-1.2,0.6-3.4,1.2-6.1,1.2c-5.3,0-8.5-3.4-8.5-8.4c0-7.4,5.6-13.6,13.5-13.6c1.9,0,3.5,0.5,4.3,0.8l-1.3,3.9
		c-0.8-0.3-1.8-0.7-3.2-0.7c-4.9,0-8,4.5-8,8.9c0,3.2,1.8,4.9,4.6,4.9c2,0,3.4-0.5,4.5-1L260.1,179.8z"/>
	<path d="M285.5,159.4l-2.8,14.6c-0.5,2.5-0.8,4.7-1,6.6h-4.5l0.4-3.7h-0.1c-2,2.7-4.7,4.2-7.3,4.2c-3.1,0-5.5-1.6-5.5-6
		c0-1.1,0.1-2.3,0.4-3.8l2.3-11.8h5l-2.2,11.5c-0.2,1-0.3,2.1-0.3,2.9c0,1.7,0.7,3,2.7,3c2.3,0,5.1-2.8,5.9-7.2l2-10.3H285.5z"/>
	<path d="M287.3,180.6l2.5-13c0.6-3,0.8-6.2,1.1-8.1h4.4c-0.1,1.4-0.3,2.9-0.5,4.5h0.1c1.4-2.9,3.7-4.9,6.6-4.9c0.3,0,0.7,0,1.1,0.1
		l-1,4.9c-0.3,0-0.6-0.1-1-0.1c-3.6,0-5.9,3.6-6.7,8.2l-1.6,8.5H287.3z"/>
	<path d="M302.3,180.6l4-21.1h5.1l-4,21.1H302.3z M307.2,153.7c0-1.8,1.4-3.1,3-3.1c1.6,0,2.7,1.1,2.7,2.7c0,1.9-1.4,3-3.1,3
		C308.2,156.4,307.1,155.3,307.2,153.7z"/>
	<path d="M324,153.6l-1.1,5.8h4.8l-0.8,3.9h-4.7l-1.7,8.5c-0.2,1-0.3,2.1-0.3,3c0,1.1,0.5,1.9,1.9,1.9c0.6,0,1.2,0,1.7-0.1l-0.5,3.9
		c-0.7,0.3-2.1,0.4-3.3,0.4c-3.5,0-5-1.9-5-4.3c0-1.2,0.1-2.4,0.5-3.9l1.8-9.4h-2.9l0.7-3.9h2.9l0.9-4.6L324,153.6z"/>
	<path d="M334.4,159.4l1.6,10.2c0.4,2.3,0.7,3.8,0.8,5.3h0.1c0.5-1.3,1-2.7,2-5l4.6-10.4h5.3l-7.7,15.6c-2.6,5.2-4.9,8.9-7.7,11.6
		c-2.4,2.4-5.2,3.4-6.5,3.6l-1.2-4.3c1-0.3,2.4-0.9,3.7-1.8c1.4-1,2.8-2.5,3.7-4.2c0.2-0.3,0.2-0.6,0.1-1l-4.2-19.5H334.4z"/>
	<path d="M357.5,174.8c1.6,1.1,4,1.9,6.6,1.9c2.8,0,5.4-1.5,5.4-4.3c0-1.9-1.3-3.2-4.1-4.7c-3.4-1.8-5.9-4.2-5.9-7.6
		c0-5.6,4.9-9.1,10.8-9.1c3.3,0,5.4,0.8,6.5,1.5l-1.6,4.2c-1-0.5-2.9-1.3-5.3-1.3c-3.2,0-5,1.9-5,3.8c0,2,1.6,3.2,4.4,4.7
		c3.6,1.9,5.7,4.2,5.7,7.8c0,5.9-4.7,9.5-11.3,9.5c-3.6,0-6.5-1-7.8-2L357.5,174.8z"/>
	<path d="M383.4,159.4l1.6,10.2c0.4,2.3,0.7,3.8,0.8,5.3h0.1c0.5-1.3,1-2.7,2-5l4.6-10.4h5.3l-7.7,15.6c-2.6,5.2-4.9,8.9-7.7,11.6
		c-2.4,2.4-5.2,3.4-6.5,3.6l-1.2-4.3c1-0.3,2.4-0.9,3.7-1.8c1.4-1,2.8-2.5,3.7-4.2c0.2-0.3,0.2-0.6,0.1-1l-4.2-19.5H383.4z"/>
	<path d="M398,175.8c1.1,0.6,3.2,1.4,5.1,1.4c2,0,3.3-1.2,3.3-2.6c0-1.3-0.7-2.2-2.8-3.3c-2.4-1.3-4.2-3.1-4.2-5.5
		c0-4.1,3.6-6.9,8.5-6.9c2.2,0,4,0.5,5,1.1l-1.3,3.6c-0.8-0.4-2.2-1-3.9-1c-1.9,0-3.2,1-3.2,2.5c0,1.2,1,2,2.7,2.9
		c2.3,1.3,4.4,3,4.4,5.7c0,4.6-3.9,7.2-9,7.2c-2.5,0-4.8-0.7-5.9-1.5L398,175.8z"/>
	<path d="M425.5,153.6l-1.1,5.8h4.8l-0.8,3.9h-4.7l-1.7,8.5c-0.2,1-0.3,2.1-0.3,3c0,1.1,0.5,1.9,1.9,1.9c0.6,0,1.2,0,1.7-0.1
		l-0.5,3.9c-0.7,0.3-2.1,0.4-3.3,0.4c-3.5,0-5-1.9-5-4.3c0-1.2,0.1-2.4,0.5-3.9l1.8-9.4h-2.9l0.7-3.9h2.9l0.9-4.6L425.5,153.6z"/>
	<path d="M445.5,179.4c-2.1,1.1-4.9,1.6-7.5,1.6c-5.9,0-8.7-3.6-8.7-8.7c0-6.4,4.7-13.3,12-13.3c4.2,0,6.8,2.4,6.8,5.9
		c0,5.4-5.7,7.2-13.8,7c-0.1,0.7,0.1,2.2,0.6,3c0.8,1.4,2.3,2.2,4.3,2.2c2.4,0,4.3-0.6,5.8-1.4L445.5,179.4z M440.7,162.7
		c-3.2,0-5.3,2.8-5.9,5.4c5.2,0.1,8.5-0.7,8.5-3.2C443.4,163.6,442.3,162.7,440.7,162.7z"/>
	<path d="M449.7,180.6l2.7-14.6c0.5-2.5,0.8-4.7,1-6.6h4.4l-0.4,3.7h0c2-2.8,4.6-4.2,7.3-4.2c3.3,0,4.8,2.1,5,4.3
		c1.9-2.9,4.6-4.3,7.5-4.3c2.9,0,5.2,1.9,5.2,5.6c0,0.9-0.2,2.5-0.3,3.6l-2.3,12.4h-4.9l2.2-11.8c0.1-0.9,0.3-1.8,0.3-2.7
		c0-1.8-0.7-3-2.6-3c-2.3,0-4.9,2.9-5.7,7.4l-1.9,10.1h-4.9l2.3-12c0.2-0.9,0.3-1.7,0.3-2.5c0-1.6-0.5-3-2.5-3c-2.3,0-5,3.2-5.8,7.5
		l-1.8,10H449.7z"/>
	<path d="M485.9,175.8c1.1,0.6,3.2,1.4,5.1,1.4c2,0,3.3-1.2,3.3-2.6c0-1.3-0.7-2.2-2.8-3.3c-2.4-1.3-4.2-3.1-4.2-5.5
		c0-4.1,3.6-6.9,8.5-6.9c2.2,0,4,0.5,5,1.1l-1.3,3.6c-0.8-0.4-2.2-1-3.9-1c-1.9,0-3.2,1-3.2,2.5c0,1.2,1,2,2.7,2.9
		c2.3,1.3,4.4,3,4.4,5.7c0,4.6-3.9,7.2-9,7.2c-2.5,0-4.8-0.7-5.9-1.5L485.9,175.8z"/>
</g>
</svg>
